<svg width="34" height="34" viewBox="0 0 34 34" fill="none" xmlns="http://www.w3.org/2000/svg">
    <path d="M28.277 12.693c-.95-1.048-2.38-1.657-4.364-1.87V9.747a6.9 6.9 0 0 0-2.266-5.114c-1.46-1.332-3.358-1.955-5.327-1.771-3.386.326-6.233 3.598-6.233 7.14v.821c-1.984.213-3.415.822-4.364 1.87-1.374 1.53-1.331 3.57-1.176 4.987l.992 7.89c.298 2.763 1.417 5.597 7.508 5.597h7.905c6.092 0 7.211-2.834 7.509-5.582l.992-7.92c.155-1.402.184-3.442-1.176-4.972zM16.518 4.831c1.417-.128 2.763.312 3.811 1.26a4.925 4.925 0 0 1 1.615 3.656v.991h-9.888v-.736c0-2.522 2.082-4.944 4.462-5.171zm-4.59 13.798h-.014a1.42 1.42 0 0 1-1.416-1.416 1.424 1.424 0 0 1 2.848 0 1.42 1.42 0 0 1-1.418 1.416zm9.917 0h-.014a1.42 1.42 0 0 1-1.417-1.416 1.424 1.424 0 0 1 2.848 0 1.42 1.42 0 0 1-1.417 1.416z" fill="#222F5D" fill-opacity=".4"/>
</svg>
