<svg width="34" height="34" viewBox="0 0 34 34" fill="none" xmlns="http://www.w3.org/2000/svg">
    <path d="M10.257 2.833H7.565c-3.102 0-4.732 1.63-4.732 4.718v2.692c0 3.088 1.63 4.717 4.718 4.717h2.692c3.088 0 4.717-1.629 4.717-4.717V7.55c.014-3.088-1.615-4.718-4.703-4.718zM26.45 2.833h-2.692c-3.089 0-4.718 1.63-4.718 4.718v2.692c0 3.088 1.63 4.717 4.718 4.717h2.691c3.088 0 4.718-1.629 4.718-4.717V7.55c0-3.088-1.63-4.718-4.718-4.718zM26.45 19.026h-2.692c-3.089 0-4.718 1.629-4.718 4.717v2.692c0 3.088 1.63 4.718 4.718 4.718h2.691c3.088 0 4.718-1.63 4.718-4.718v-2.692c0-3.088-1.63-4.717-4.718-4.717zM10.257 19.026H7.565c-3.102 0-4.732 1.629-4.732 4.717v2.692c0 3.103 1.63 4.732 4.718 4.732h2.692c3.088 0 4.717-1.63 4.717-4.718v-2.692c.014-3.102-1.615-4.731-4.703-4.731z" fill="#222F5D"/>
</svg>
